# xmcd
#
# Track frame offsets:
# 150
# 16974
# 31402
# 48430
# 66571
# 81689
# 96099
# 114943
# 130355
# 145739
# 163067
# 179650
# 198784
#
# Disc length: 2918 seconds
#
# Revision: 0
# Processed by: cddbd v1.5.2PL0 Copyright (c) Steve Scherf et al.
# Submitted via: Axialis_AX_CDPlayer 2.6
#
DISCID=ba0b640d
DTITLE=Trace Adkins - Greatest Hits Volume II - American Man
DYEAR=1900
DGENRE=
TTITLE0=Ladies Love Country Boys
TTITLE1=I Got My Game On
TTITLE2=You're Gonna Miss This
TTITLE3=Honky Tonk Badonkadonk (Album Version)
TTITLE4=Hot Mama
TTITLE5=Rough and Ready
TTITLE6=Arlington
TTITLE7=Songs About Me
TTITLE8=Chrome
TTITLE9=I Wanna Feel Something
TTITLE10=Swing
TTITLE11=American Man
TTITLE12=I Came Here To Live
EXTD=www.traceadkins.com
EXTT0=
EXTT1=
EXTT2=
EXTT3=
EXTT4=
EXTT5=
EXTT6=
EXTT7=
EXTT8=
EXTT9=
EXTT10=
EXTT11=
EXTT12=
PLAYORDER=
